<svg width="24" height="24" viewBox="0 0 24 24" fill="none" xmlns="http://www.w3.org/2000/svg">
<path fill-rule="evenodd" clip-rule="evenodd" d="M5.82288 14.177C6.01547 14.6036 6.05231 15.0843 5.927 15.5353C5.80168 15.9863 5.52214 16.3791 5.13706 16.6452C4.75198 16.9113 4.28575 17.034 3.81957 16.9917C3.35338 16.9495 2.91678 16.7451 2.58579 16.4141C2.2548 16.0831 2.05039 15.6465 2.00816 15.1803C1.96593 14.7141 2.08855 14.2479 2.35467 13.8628C2.6208 13.4777 3.01356 13.1982 3.46456 13.0729C3.91557 12.9476 4.39624 12.9844 4.82288 13.177L7.17688 10.823C7.03943 10.5184 6.9805 10.1842 7.00547 9.85096C7.03044 9.51772 7.13851 9.19604 7.31982 8.91532C7.50113 8.6346 7.74988 8.40378 8.04336 8.24396C8.33685 8.08414 8.6657 8.0004 8.99988 8.0004C9.33406 8.0004 9.66291 8.08414 9.95639 8.24396C10.2499 8.40378 10.4986 8.6346 10.6799 8.91532C10.8612 9.19604 10.9693 9.51772 10.9943 9.85096C11.0193 10.1842 10.9603 10.5184 10.8229 10.823L13.1769 13.177C13.4355 13.0602 13.7161 12.9998 13.9999 12.9998C14.2837 12.9998 14.5642 13.0602 14.8229 13.177L18.1769 9.823C17.9843 9.39636 17.9474 8.91569 18.0728 8.46469C18.1981 8.01368 18.4776 7.62092 18.8627 7.3548C19.2478 7.08867 19.714 6.96605 20.1802 7.00828C20.6464 7.05051 21.083 7.25492 21.414 7.58591C21.745 7.9169 21.9494 8.35351 21.9916 8.81969C22.0338 9.28587 21.9112 9.7521 21.6451 10.1372C21.379 10.5223 20.9862 10.8018 20.5352 10.9271C20.0842 11.0524 19.6035 11.0156 19.1769 10.823L15.8229 14.177C15.9603 14.4816 16.0193 14.8158 15.9943 15.149C15.9693 15.4823 15.8612 15.804 15.6799 16.0847C15.4986 16.3654 15.2499 16.5962 14.9564 16.756C14.6629 16.9159 14.3341 16.9996 13.9999 16.9996C13.6657 16.9996 13.3368 16.9159 13.0434 16.756C12.7499 16.5962 12.5011 16.3654 12.3198 16.0847C12.1385 15.804 12.0304 15.4823 12.0055 15.149C11.9805 14.8158 12.0394 14.4816 12.1769 14.177L9.82288 11.823C9.56422 11.9398 9.28368 12.0002 8.99988 12.0002C8.71608 12.0002 8.43553 11.9398 8.17688 11.823L5.82288 14.177Z" fill="white"/>
</svg>
